# xmcd CD database file
#
# Track frame offsets:
#	150
#	12260
#	31808
#	67841
#	82453
#	89425
#	105972
#	116074
#	121048
#	130483
#	139590
#	152242
#	165400
#	177043
#	180016
#
# Disc length: 2637 seconds
#
# Revision: 1
# Processed by: cddbd v1.5.2PL0 Copyright (c) Steve Scherf et al.
# Submitted via: CDex 1.51
#
DISCID=b20a4b0f
DTITLE=Louis Andriessen - All the pianoworks
DYEAR=2005
DGENRE=New Age
TTITLE0=Rondo Barbara 1954
TTITLE1=Prospetitive e Retrospetitive
TTITLE2=Registers 1963
TTITLE3=Trois Pieces 1961: Promenade
TTITLE4=Trois Pieces 1961: Fracos
TTITLE5=Trois Pieces 1961: Hymne (Promenade)
TTITLE6=Wals 1974
TTITLE7=Menuet voor Marianne 1983
TTITLE8=Berceuse voor Annie van Os 1985
TTITLE9=Romance voor Caecilia 1991
TTITLE10=Lied 1993
TTITLE11=Charole 1992
TTITLE12=Deuxieme Chorale 1992
TTITLE13=Feli-citazione 2000
TTITLE14=Base 1994
EXTD=YEAR: 2005
EXTT0=
EXTT1=
EXTT2=
EXTT3=
EXTT4=
EXTT5=
EXTT6=
EXTT7=
EXTT8=
EXTT9=
EXTT10=
EXTT11=
EXTT12=
EXTT13=
EXTT14=
PLAYORDER=
